<svg width="48" height="49" viewBox="0 0 48 49" fill="none" xmlns="http://www.w3.org/2000/svg">
<g id="Frame 2">
<rect x="0.5" y="1.22" width="47" height="47" rx="1.5" fill="white"/>
<rect x="0.5" y="1.22" width="47" height="47" rx="1.5" fill="#E5D8C6" fill-opacity="0.1"/>
<rect x="0.5" y="1.22" width="47" height="47" rx="1.5" stroke="#E5D8C6" stroke-dasharray="36 36"/>
<g id="Group 1">
<g id="Vector">
<path d="M21.6068 27.7094C21.5928 27.1339 21.5858 26.5366 21.5858 25.9173C21.5858 24.3206 21.6315 22.5689 21.723 20.6625C21.4478 22.3904 21.1308 24.1421 20.772 25.9173C20.1862 28.815 19.5865 30.2638 18.9728 30.2638C18.5265 30.2638 18.3033 29.0039 18.3033 26.4842C18.3033 25.4764 18.3452 24.2795 18.4289 22.8937C18.5126 21.3819 18.6102 16.3898 18.7218 14.5L16.1276 12.5C15.9324 14.8937 15.7789 17.2874 15.6674 19.6811C15.5558 21.9488 15.5 24.0906 15.5 26.1063C15.5 29.2559 15.6674 31.7756 16.0021 33.6653C16.3647 35.5551 16.9784 36.5 17.8431 36.5C19.0425 36.5 20.0607 34.6732 20.8975 31.0197C21.1476 29.9275 21.3841 28.8241 21.6068 27.7094Z" fill="#DB5A48"/>
<path d="M28.5544 33.6653C28.917 35.5551 29.5307 36.5 30.3954 36.5C31.5949 36.5 32.613 34.6732 33.4498 31.0197C34.2866 27.3661 34.97 22.0055 35.5 18.1L34.7469 17.4134C34.3842 20.185 33.9101 23.0197 33.3243 25.9173C32.7385 28.815 32.1388 30.2638 31.5251 30.2638C31.0788 30.2638 30.8557 29.0039 30.8557 26.4842C30.8557 25.4764 30.8213 25.1708 30.905 23.785C30.7934 25.6747 30.9887 22.2732 30.905 23.785L28.1309 21.785C28.0958 22.4987 28.155 21.0962 28.1309 21.785C28.0785 23.2846 28.0523 24.725 28.0523 26.1063C28.0523 26.788 28.0602 27.4403 28.0758 28.063C28.1326 30.3172 28.2921 32.1846 28.5544 33.6653Z" fill="#DB5A48"/>
<path d="M22.1297 33.6653C22.4923 35.5551 23.0781 36.5 23.887 36.5C25.2539 36.5 26.3836 34.7992 27.2762 31.3976C27.5615 30.3042 27.828 29.1927 28.0758 28.063C28.0602 27.4403 28.0523 26.788 28.0523 26.1063C28.0523 24.725 28.0785 23.2846 28.1309 21.785C27.8788 23.2884 27.5939 24.7918 27.2762 26.2952C26.6904 28.9409 26.0767 30.2638 25.4352 30.2638C24.7657 30.2638 24.431 28.563 24.431 25.1614C24.431 23.6585 24.32 21.9969 24.5406 19L21.9153 17.1418C21.7201 19.5355 21.8345 18.3947 21.723 20.6625C21.7124 20.8653 21.7325 20.463 21.723 20.6625C21.6315 22.5689 21.5858 24.3206 21.5858 25.9173C21.5858 26.5366 21.5928 27.1339 21.6068 27.7094C21.6641 30.0606 21.8384 32.0459 22.1297 33.6653Z" fill="#DB5A48"/>
</g>
</g>
</g>
</svg>
